# xmcd
#
# Track frame offsets:
#	150
#	8120
#	17902
#	24690
#	35012
#	45890
#	55712
#	67537
#	78875
#	90357
#	101457
#	114130
#	125015
#	136682
#	148015
#	158897
#	172090
#	186697
#	199037
#	216187
#
# Disc length: 3058 seconds
#
# Revision: 1
# Processed by: cddbd v1.5.1PL0 Copyright (c) Steve Scherf et al.
# Submitted via: audiograbber 1.83.01
#
DISCID=030bf014
DTITLE=Divers - Country Classics Wishful Thinking
DYEAR=1900
DGENRE=Country
TTITLE0=Hello Walls (Roy Drusky)
TTITLE1=Release Me (Barbara Mandrell)
TTITLE2=Have I Told You Lately That I Love You (Jim Reeves)
TTITLE3=Lonely Wine (Mickey Gilley)
TTITLE4=She Even Woke Me Up To Say Goodbye (Kenny Rodgers)
TTITLE5=I Don't Know Why I Love You But I Do (Freddy Fender)
TTITLE6=Tender Years (George Jones)
TTITLE7=Hungry For Love (Patsy Cline)
TTITLE8=Whisful Thinking (Donna Fargo)
TTITLE9=Should I Go Home (Stonewall Jackson)
TTITLE10=The Shelter Of Your Arms (Willie Nelson)
TTITLE11=Once A Day (Faron Young)
TTITLE12=Dixie (Boxcar Willie)
TTITLE13=Am I Losing You (Jim Reeves)
TTITLE14=I'm So Lonesome I Could Cry (Billie  Lo Spears)
TTITLE15=Ruby Don't Take Your Love To Town (Kenny Rodgers)
TTITLE16=Then You'll Know (Patsy Cline)
TTITLE17=Ol' Blue (Stonewall Jackson)
TTITLE18=Sweeter Than Candy (Carl Perkins)
TTITLE19=Daddy (Donna Fargo)
EXTD=
EXTT0=
EXTT1=
EXTT2=
EXTT3=
EXTT4=
EXTT5=
EXTT6=
EXTT7=
EXTT8=
EXTT9=
EXTT10=
EXTT11=
EXTT12=
EXTT13=
EXTT14=
EXTT15=
EXTT16=
EXTT17=
EXTT18=
EXTT19=
PLAYORDER=
